<svg width="42" height="42" viewBox="0 0 42 42" fill="none" xmlns="http://www.w3.org/2000/svg">
<path d="M14.4289 4.13525C9.10958 4.13525 4.78265 8.46619 4.78265 13.7869V27.5711C4.78265 32.8904 9.11358 37.2173 14.4343 37.2173H28.2185C33.5378 37.2173 37.8647 32.8864 37.8647 27.5657V13.7815C37.8647 8.46218 33.5338 4.13525 28.2131 4.13525H14.4289ZM30.9726 9.64893C31.7335 9.64893 32.3511 10.2665 32.3511 11.0274C32.3511 11.7882 31.7335 12.4058 30.9726 12.4058C30.2117 12.4058 29.5942 11.7882 29.5942 11.0274C29.5942 10.2665 30.2117 9.64893 30.9726 9.64893ZM21.3237 12.4058C25.8849 12.4058 29.5942 16.1151 29.5942 20.6763C29.5942 25.2375 25.8849 28.9468 21.3237 28.9468C16.7625 28.9468 13.0532 25.2375 13.0532 20.6763C13.0532 16.1151 16.7625 12.4058 21.3237 12.4058ZM21.3237 15.1626C19.8614 15.1626 18.4589 15.7435 17.4249 16.7775C16.3909 17.8115 15.81 19.214 15.81 20.6763C15.81 22.1386 16.3909 23.541 17.4249 24.5751C18.4589 25.6091 19.8614 26.19 21.3237 26.19C22.786 26.19 24.1884 25.6091 25.2225 24.5751C26.2565 23.541 26.8374 22.1386 26.8374 20.6763C26.8374 19.214 26.2565 17.8115 25.2225 16.7775C24.1884 15.7435 22.786 15.1626 21.3237 15.1626Z" fill="#ECECEC"/>
</svg>
