<svg width="161" height="84" viewBox="0 0 161 84" fill="none" xmlns="http://www.w3.org/2000/svg">
<g clip-path="url(#clip0_111_4)">
<path d="M100.785 62.5269L96.2388 57.92L74.8845 78.9912L79.4302 83.598L100.785 62.5269Z" fill="#ECECEC"/>
<path d="M62.6066 58L58 62.5459L79.072 83.8994L83.6787 79.3534L62.6066 58Z" fill="#ECECEC"/>
</g>
<path d="M6.14572 27.9127H12.5428V31H2.25184V11.5862H6.14572V27.9127ZM29.3417 22.9619C29.3417 23.5182 29.3046 24.0188 29.2304 24.4638H17.966C18.0587 25.5764 18.4481 26.4479 19.1341 27.0783C19.8202 27.7087 20.6639 28.024 21.6652 28.024C23.1115 28.024 24.1406 27.4028 24.7525 26.1605H28.9523C28.5073 27.6438 27.6543 28.8676 26.3934 29.8318C25.1326 30.7775 23.5843 31.2503 21.7486 31.2503C20.2652 31.2503 18.9302 30.9258 17.7435 30.2769C16.5753 29.6093 15.6575 28.6729 14.9899 27.4677C14.341 26.2624 14.0165 24.8718 14.0165 23.2957C14.0165 21.701 14.341 20.3011 14.9899 19.0959C15.6389 17.8906 16.5475 16.9635 17.7157 16.3145C18.8838 15.6655 20.2281 15.341 21.7486 15.341C23.2134 15.341 24.5207 15.6563 25.6703 16.2867C26.8385 16.9171 27.7378 17.8164 28.3682 18.9846C29.0172 20.1342 29.3417 21.46 29.3417 22.9619ZM25.3087 21.8494C25.2902 20.8481 24.9286 20.0508 24.224 19.4574C23.5194 18.8455 22.6572 18.5396 21.6374 18.5396C20.6732 18.5396 19.8573 18.8363 19.1898 19.4296C18.5408 20.0044 18.1421 20.811 17.9938 21.8494H25.3087ZM31.1826 23.2401C31.1826 21.6825 31.4885 20.3011 32.1004 19.0959C32.7309 17.8906 33.5745 16.9635 34.6314 16.3145C35.7069 15.6655 36.9029 15.341 38.2194 15.341C39.369 15.341 40.3703 15.5728 41.2232 16.0364C42.0947 16.4999 42.79 17.084 43.3092 17.7886V15.5914H47.2309V31H43.3092V28.7471C42.8086 29.4703 42.1132 30.0729 41.2232 30.555C40.3517 31.0185 39.3412 31.2503 38.1916 31.2503C36.8936 31.2503 35.7069 30.9166 34.6314 30.249C33.5745 29.5815 32.7309 28.6451 32.1004 27.4399C31.4885 26.2161 31.1826 24.8161 31.1826 23.2401ZM43.3092 23.2957C43.3092 22.35 43.1238 21.5434 42.753 20.8759C42.3821 20.1899 41.8815 19.6707 41.251 19.3184C40.6206 18.9475 39.9438 18.7621 39.2207 18.7621C38.4975 18.7621 37.83 18.9382 37.2181 19.2905C36.6062 19.6429 36.1055 20.162 35.7162 20.8481C35.3453 21.5156 35.1599 22.3129 35.1599 23.2401C35.1599 24.1672 35.3453 24.983 35.7162 25.6876C36.1055 26.3737 36.6062 26.9022 37.2181 27.273C37.8485 27.6438 38.516 27.8293 39.2207 27.8293C39.9438 27.8293 40.6206 27.6531 41.251 27.3008C41.8815 26.93 42.3821 26.4108 42.753 25.7433C43.1238 25.0572 43.3092 24.2413 43.3092 23.2957ZM54.9278 17.9833C55.4285 17.1675 56.0775 16.5278 56.8748 16.0642C57.6906 15.6006 58.6178 15.3689 59.6561 15.3689V19.4574H58.627C57.4032 19.4574 56.4761 19.7448 55.8457 20.3196C55.2338 20.8945 54.9278 21.8957 54.9278 23.3235V31H51.034V15.5914H54.9278V17.9833ZM70.8176 15.3689C72.6533 15.3689 74.1366 15.9529 75.2677 17.1211C76.3988 18.2707 76.9643 19.8839 76.9643 21.9606V31H73.0705V22.4891C73.0705 21.2653 72.7645 20.3289 72.1526 19.6799C71.5407 19.0124 70.7063 18.6787 69.6494 18.6787C68.5739 18.6787 67.721 19.0124 67.0906 19.6799C66.4787 20.3289 66.1727 21.2653 66.1727 22.4891V31H62.2788V15.5914H66.1727V17.5105C66.6919 16.843 67.3502 16.3238 68.1475 15.9529C68.9633 15.5636 69.8534 15.3689 70.8176 15.3689ZM106.43 15.3689C108.322 15.3689 109.842 15.9529 110.992 17.1211C112.16 18.2707 112.744 19.8839 112.744 21.9606V31H108.85V22.4891C108.85 21.2838 108.544 20.366 107.932 19.7356C107.32 19.0866 106.486 18.7621 105.429 18.7621C104.372 18.7621 103.528 19.0866 102.898 19.7356C102.286 20.366 101.98 21.2838 101.98 22.4891V31H98.0862V22.4891C98.0862 21.2838 97.7803 20.366 97.1684 19.7356C96.5565 19.0866 95.7221 18.7621 94.6652 18.7621C93.5897 18.7621 92.7368 19.0866 92.1063 19.7356C91.4944 20.366 91.1885 21.2838 91.1885 22.4891V31H87.2946V15.5914H91.1885V17.4549C91.6891 16.8059 92.3289 16.296 93.1076 15.9251C93.9049 15.5543 94.7764 15.3689 95.7221 15.3689C96.9273 15.3689 98.0028 15.6284 98.9484 16.1476C99.8941 16.6483 100.627 17.3714 101.146 18.3171C101.646 17.4271 102.369 16.7132 103.315 16.1754C104.279 15.6377 105.318 15.3689 106.43 15.3689ZM123.281 31.2503C121.798 31.2503 120.463 30.9258 119.276 30.2769C118.089 29.6093 117.153 28.6729 116.467 27.4677C115.799 26.2624 115.465 24.8718 115.465 23.2957C115.465 21.7196 115.809 20.3289 116.495 19.1237C117.199 17.9184 118.154 16.9913 119.359 16.3423C120.565 15.6748 121.909 15.341 123.392 15.341C124.876 15.341 126.22 15.6748 127.425 16.3423C128.631 16.9913 129.576 17.9184 130.262 19.1237C130.967 20.3289 131.319 21.7196 131.319 23.2957C131.319 24.8718 130.958 26.2624 130.234 27.4677C129.53 28.6729 128.566 29.6093 127.342 30.2769C126.137 30.9258 124.783 31.2503 123.281 31.2503ZM123.281 27.8571C123.986 27.8571 124.644 27.6902 125.256 27.3564C125.886 27.0041 126.387 26.485 126.758 25.7989C127.129 25.1128 127.314 24.2784 127.314 23.2957C127.314 21.8308 126.925 20.709 126.146 19.9303C125.386 19.1329 124.449 18.7343 123.337 18.7343C122.224 18.7343 121.288 19.1329 120.528 19.9303C119.786 20.709 119.415 21.8308 119.415 23.2957C119.415 24.7605 119.777 25.8916 120.5 26.6889C121.241 27.4677 122.169 27.8571 123.281 27.8571ZM138.069 17.9833C138.57 17.1675 139.219 16.5278 140.016 16.0642C140.832 15.6006 141.759 15.3689 142.798 15.3689V19.4574H141.769C140.545 19.4574 139.618 19.7448 138.987 20.3196C138.375 20.8945 138.069 21.8957 138.069 23.3235V31H134.175V15.5914H138.069V17.9833ZM159.744 22.9619C159.744 23.5182 159.707 24.0188 159.633 24.4638H148.369C148.461 25.5764 148.851 26.4479 149.537 27.0783C150.223 27.7087 151.066 28.024 152.068 28.024C153.514 28.024 154.543 27.4028 155.155 26.1605H159.355C158.91 27.6438 158.057 28.8676 156.796 29.8318C155.535 30.7775 153.987 31.2503 152.151 31.2503C150.668 31.2503 149.333 30.9258 148.146 30.2769C146.978 29.6093 146.06 28.6729 145.393 27.4677C144.744 26.2624 144.419 24.8718 144.419 23.2957C144.419 21.701 144.744 20.3011 145.393 19.0959C146.041 17.8906 146.95 16.9635 148.118 16.3145C149.286 15.6655 150.631 15.341 152.151 15.341C153.616 15.341 154.923 15.6563 156.073 16.2867C157.241 16.9171 158.14 17.8164 158.771 18.9846C159.42 20.1342 159.744 21.46 159.744 22.9619ZM155.711 21.8494C155.693 20.8481 155.331 20.0508 154.627 19.4574C153.922 18.8455 153.06 18.5396 152.04 18.5396C151.076 18.5396 150.26 18.8363 149.592 19.4296C148.943 20.0044 148.545 20.811 148.396 21.8494H155.711Z" fill="#ECECEC"/>
<defs>
<clipPath id="clip0_111_4">
<rect width="43" height="27" fill="white" transform="translate(58 57)"/>
</clipPath>
</defs>
</svg>
