<svg width="188" height="62" viewBox="0 0 188 62" fill="none" xmlns="http://www.w3.org/2000/svg">
<path d="M11.3099 15.0592V22.4985H9.88085V14.6396L0 9.35965L27.7968 0L57.261 8.45906L42.3216 16.739L42.6784 22.9196H16.6067L16.5475 18.1798L11.3099 15.0592ZM9.99854 24.4306C10.5 24.6579 9.98026 30.2303 9.98026 30.2303C10.0855 31.3224 8.94298 38.2617 8.94298 38.2617C10.7727 39.6265 11.8501 38.4832 11.8501 38.4832C12.8699 37.4766 12.2325 33.4671 12.2325 33.4671L11.3107 23.9189L10.0161 24.1966L9.99854 24.4306ZM52.5285 54.7003C52.5285 49.7836 50.2961 45.7983 47.5431 45.7983H11.4693C8.71564 45.7983 6.48392 49.7836 6.48392 54.7003V62H52.5285V54.7003ZM16.5073 23.9181C15.7405 25.663 15.3121 27.5892 15.3121 29.6177C15.3121 37.4561 21.6674 43.8114 29.5058 43.8114C37.3443 43.8114 43.7003 37.4569 43.7003 29.6177C43.7003 27.5892 43.2719 25.663 42.5051 23.9181H16.5073Z" fill="white"/>
<path d="M78.4004 28.2762H76.4841V33.4674C75.9666 33.5644 75.3197 33.6129 74.5434 33.6129C73.751 33.6129 73.1041 33.5644 72.6028 33.4674V17.0205L72.7726 16.8507C74.1796 16.8183 75.348 16.7941 76.2779 16.7779C77.2078 16.7617 77.9153 16.7537 78.4004 16.7537C79.2899 16.7537 80.1025 16.8749 80.8384 17.1175C81.5742 17.3601 82.2009 17.724 82.7184 18.2091C83.2359 18.6943 83.6361 19.2967 83.9191 20.0163C84.2021 20.736 84.3436 21.5648 84.3436 22.5028C84.3436 23.4408 84.1981 24.2696 83.907 24.9892C83.6159 25.7089 83.2116 26.3113 82.6941 26.7965C82.1766 27.2816 81.5499 27.6495 80.8141 27.9002C80.0783 28.1509 79.2737 28.2762 78.4004 28.2762ZM76.4841 19.7131V25.3652C76.9369 25.3491 77.2967 25.3369 77.5635 25.3288C77.8304 25.3208 78.0042 25.3167 78.0851 25.3167C78.5217 25.3167 78.8856 25.2399 79.1767 25.0863C79.4678 24.9326 79.7023 24.7305 79.8802 24.4798C80.0581 24.2292 80.1874 23.934 80.2683 23.5944C80.3492 23.2548 80.3896 22.899 80.3896 22.5271C80.3896 22.1713 80.3492 21.8236 80.2683 21.484C80.1874 21.1443 80.0621 20.8452 79.8923 20.5864C79.7225 20.3277 79.5001 20.1215 79.2252 19.9678C78.9503 19.8142 78.6268 19.7374 78.2549 19.7374H77.2603C77.2603 19.7374 77.0016 19.7293 76.4841 19.7131ZM85.4838 23.1092C85.5646 22.7858 85.7183 22.426 85.9447 22.0298C86.1711 21.6335 86.3975 21.3465 86.6239 21.1686C88.1117 21.2818 89.1467 22.0176 89.7289 23.3761C90.3435 21.9206 91.3542 21.1929 92.7612 21.1929C93.1816 21.1929 93.7153 21.2575 94.3622 21.3869C94.3622 21.8883 94.2773 22.4826 94.1075 23.1699C93.9377 23.8572 93.7072 24.4434 93.4161 24.9286C93.1412 24.8316 92.7288 24.7507 92.179 24.686C91.3704 24.686 90.7073 25.0984 90.1898 25.9232V33.4674C89.6561 33.5644 89.0295 33.6129 88.3098 33.6129C87.5902 33.6129 86.9554 33.5644 86.4056 33.4674V25.6321C86.4056 24.4192 86.0983 23.5782 85.4838 23.1092ZM104.914 28.6401H98.5831C98.6154 29.3678 98.8014 29.9338 99.141 30.3381C99.4806 30.7424 100.039 30.9446 100.815 30.9446C101.203 30.9446 101.652 30.888 102.161 30.7748C102.671 30.6616 103.257 30.4756 103.92 30.2168C104.454 30.7667 104.785 31.5106 104.914 32.4486C103.621 33.3704 102.036 33.8313 100.16 33.8313C99.141 33.8313 98.2879 33.6695 97.6006 33.3461C96.9133 33.0227 96.3554 32.5699 95.9268 31.9877C95.4983 31.4055 95.195 30.7182 95.0172 29.9257C94.8393 29.1333 94.7503 28.2681 94.7503 27.3301C94.7503 26.4245 94.8595 25.5876 95.0778 24.8194C95.2961 24.0513 95.6277 23.3842 96.0724 22.8181C96.5171 22.2521 97.0831 21.8074 97.7704 21.484C98.4577 21.1605 99.2623 20.9988 100.184 20.9988C100.96 20.9988 101.66 21.1282 102.282 21.3869C102.905 21.6457 103.435 22.0015 103.871 22.4543C104.308 22.9071 104.644 23.4489 104.878 24.0796C105.113 24.7103 105.23 25.3976 105.23 26.1415C105.23 27.128 105.125 27.9608 104.914 28.6401ZM98.5588 26.0202H101.761V25.7534C101.761 25.155 101.627 24.6618 101.361 24.2736C101.094 23.8855 100.694 23.6914 100.16 23.6914C99.6423 23.6914 99.2583 23.8734 99.0076 24.2372C98.7569 24.6011 98.6073 25.1954 98.5588 26.0202ZM113.575 26.7237V26.4083C113.575 25.5027 113.477 24.8437 113.283 24.4313C113.089 24.0189 112.725 23.8127 112.192 23.8127C111.626 23.8127 111.23 24.0917 111.003 24.6496C110.777 25.2076 110.664 26.1334 110.664 27.4272C110.664 28.074 110.708 28.6158 110.797 29.0524C110.886 29.4891 111.015 29.8408 111.185 30.1077C111.355 30.3745 111.569 30.5686 111.828 30.6899C112.087 30.8112 112.394 30.8718 112.75 30.8718C113.122 30.8718 113.534 30.7909 113.987 30.6292C114.44 30.4675 114.925 30.2087 115.442 29.853C115.588 29.9338 115.738 30.0511 115.891 30.2047C116.045 30.3583 116.186 30.5322 116.316 30.7262C116.445 30.9203 116.558 31.1265 116.655 31.3448C116.752 31.5631 116.825 31.7693 116.874 31.9634C116.34 32.5294 115.645 32.9822 114.787 33.3219C113.93 33.6615 113.057 33.8313 112.168 33.8313C110.437 33.8313 109.111 33.2653 108.189 32.1332C107.267 31.0012 106.807 29.3921 106.807 27.3059C106.807 26.2385 106.956 25.3086 107.255 24.5162C107.554 23.7238 107.951 23.0688 108.444 22.5513C108.937 22.0338 109.503 21.6457 110.142 21.3869C110.781 21.1282 111.448 20.9988 112.143 20.9988C112.855 20.9988 113.506 21.0958 114.096 21.2899C114.686 21.484 115.196 21.7589 115.624 22.1147C116.053 22.4704 116.384 22.895 116.619 23.3882C116.853 23.8815 116.971 24.4273 116.971 25.0256C116.971 25.7048 116.773 26.1819 116.376 26.4568C115.98 26.7318 115.491 26.8692 114.909 26.8692C114.424 26.8692 113.979 26.8207 113.575 26.7237ZM123.666 24.1523V33.4674C123.391 33.5159 123.092 33.5523 122.768 33.5766C122.445 33.6008 122.113 33.6129 121.774 33.6129C121.434 33.6129 121.099 33.6008 120.767 33.5766C120.435 33.5523 120.132 33.5159 119.857 33.4674V25.438C119.857 24.5 119.477 24.031 118.717 24.031H118.353C118.256 23.7238 118.208 23.2952 118.208 22.7454C118.208 22.2117 118.256 21.7589 118.353 21.3869C118.774 21.3546 119.162 21.3263 119.518 21.302C119.874 21.2778 120.197 21.2656 120.488 21.2656H121.022C121.846 21.2656 122.493 21.5244 122.962 22.0419C123.431 22.5594 123.666 23.2629 123.666 24.1523ZM119.421 16.4868C119.89 16.2281 120.496 16.0987 121.24 16.0987C122 16.0987 122.59 16.2281 123.011 16.4868C123.205 16.9235 123.302 17.3924 123.302 17.8938C123.302 18.3951 123.205 18.8641 123.011 19.3007C122.542 19.5433 121.927 19.6646 121.167 19.6646C120.407 19.6646 119.825 19.5433 119.421 19.3007C119.227 18.8641 119.13 18.3951 119.13 17.8938C119.13 17.3924 119.227 16.9235 119.421 16.4868ZM125.558 32.6426C125.574 32.2222 125.683 31.7613 125.885 31.2599C126.088 30.7586 126.326 30.3624 126.601 30.0713C127.895 30.7505 129.019 31.0901 129.973 31.0901C130.426 31.0901 130.773 31.0133 131.016 30.8597C131.259 30.706 131.38 30.4998 131.38 30.2411C131.38 29.7559 131.008 29.3921 130.264 29.1495L128.93 28.6401C126.908 27.8962 125.898 26.6833 125.898 25.0014C125.898 23.7723 126.322 22.7979 127.171 22.0783C128.02 21.3586 129.164 20.9988 130.604 20.9988C131.315 20.9988 132.1 21.0999 132.957 21.302C133.814 21.5042 134.517 21.7427 135.067 22.0176C135.099 22.4704 135.01 22.9677 134.8 23.5095C134.59 24.0513 134.331 24.4353 134.024 24.6618C132.666 24.0472 131.534 23.7399 130.628 23.7399C130.304 23.7399 130.058 23.8127 129.888 23.9583C129.718 24.1038 129.633 24.2898 129.633 24.5162C129.633 24.9043 129.941 25.2116 130.555 25.438L132.059 25.9717C134.21 26.7318 135.285 28.0336 135.285 29.8772C135.285 31.0901 134.841 32.0524 133.951 32.7639C133.062 33.4755 131.792 33.8313 130.143 33.8313C128.493 33.8313 126.965 33.4351 125.558 32.6426ZM146.711 28.6401H140.38C140.412 29.3678 140.598 29.9338 140.938 30.3381C141.277 30.7424 141.835 30.9446 142.611 30.9446C142.999 30.9446 143.448 30.888 143.958 30.7748C144.467 30.6616 145.053 30.4756 145.716 30.2168C146.25 30.7667 146.582 31.5106 146.711 32.4486C145.417 33.3704 143.832 33.8313 141.956 33.8313C140.938 33.8313 140.084 33.6695 139.397 33.3461C138.71 33.0227 138.152 32.5699 137.723 31.9877C137.295 31.4055 136.992 30.7182 136.814 29.9257C136.636 29.1333 136.547 28.2681 136.547 27.3301C136.547 26.4245 136.656 25.5876 136.874 24.8194C137.093 24.0513 137.424 23.3842 137.869 22.8181C138.314 22.2521 138.88 21.8074 139.567 21.484C140.254 21.1605 141.059 20.9988 141.981 20.9988C142.757 20.9988 143.456 21.1282 144.079 21.3869C144.702 21.6457 145.231 22.0015 145.668 22.4543C146.104 22.9071 146.44 23.4489 146.675 24.0796C146.909 24.7103 147.026 25.3976 147.026 26.1415C147.026 27.128 146.921 27.9608 146.711 28.6401ZM140.355 26.0202H143.557V25.7534C143.557 25.155 143.424 24.6618 143.157 24.2736C142.89 23.8855 142.49 23.6914 141.956 23.6914C141.439 23.6914 141.055 23.8734 140.804 24.2372C140.553 24.6011 140.404 25.1954 140.355 26.0202ZM153.527 28.5673L153.503 30.3139V30.3381C154.247 30.3058 154.845 30.2896 155.298 30.2896H160.926C160.926 30.888 160.902 31.3489 160.853 31.6723C160.659 32.9176 159.834 33.5402 158.379 33.5402H151.926C151.231 33.5402 150.685 33.338 150.289 32.9337C149.893 32.5294 149.695 31.9796 149.695 31.2842V17.069L149.864 16.8992H160.32C160.417 17.3682 160.465 17.8776 160.465 18.4275C160.465 18.9773 160.352 19.5514 160.126 20.1498H153.503L153.527 21.8963V23.5944C153.948 23.5782 154.498 23.5701 155.177 23.5701H158.888C159.034 24.023 159.107 24.5405 159.107 25.1227C159.107 25.7048 159.034 26.2385 158.888 26.7237H153.527V28.5673ZM167.185 21.1201C167.961 21.1201 168.713 21.298 169.441 21.6538V15.7833L169.586 15.6135H171.066C171.842 15.6135 172.38 15.7833 172.679 16.1229C172.978 16.4626 173.128 17.0528 173.128 17.8938V29.9743C173.128 30.8314 173.354 31.4136 173.807 31.7208C173.726 32.0604 173.573 32.4243 173.346 32.8124C173.12 33.2006 172.885 33.4836 172.643 33.6615C171.462 33.6291 170.597 33.1763 170.047 32.303C169.077 33.3219 167.912 33.8313 166.554 33.8313C165.196 33.8313 164.152 33.2653 163.425 32.1332C162.697 31.0012 162.333 29.4487 162.333 27.4757C162.333 26.5054 162.458 25.628 162.709 24.8437C162.96 24.0593 163.303 23.3923 163.74 22.8424C164.177 22.2926 164.69 21.868 165.28 21.5689C165.871 21.2697 166.505 21.1201 167.185 21.1201ZM167.67 30.7748C168.333 30.7748 168.923 30.4594 169.441 29.8287V24.5162C168.778 24.1281 168.252 23.934 167.864 23.934C166.764 23.934 166.214 25.1469 166.214 27.5727C166.214 29.7074 166.7 30.7748 167.67 30.7748ZM176.015 29.3678V24.3949C176.015 23.3437 175.821 22.5351 175.432 21.9691C176.031 21.4354 176.758 21.1686 177.616 21.1686C178.473 21.1686 179.055 21.3627 179.362 21.7508C179.669 22.1389 179.823 22.7292 179.823 23.5216V28.6643C179.823 29.2303 179.888 29.6427 180.017 29.9015C180.147 30.1602 180.486 30.2896 181.036 30.2896C181.57 30.2896 182.111 30.0147 182.661 29.4648V21.3627C183.195 21.2656 183.818 21.2171 184.529 21.2171C185.241 21.2171 185.879 21.2656 186.445 21.3627V29.9985C186.445 30.8718 186.672 31.4621 187.125 31.7693C187.044 32.0928 186.89 32.4445 186.664 32.8246C186.437 33.2046 186.203 33.4836 185.96 33.6615C184.634 33.6129 183.68 33.0469 183.098 31.9634C181.82 33.1116 180.615 33.6857 179.483 33.6857C178.351 33.6857 177.49 33.2936 176.9 32.5092C176.31 31.7249 176.015 30.6777 176.015 29.3678Z" fill="white"/>
<path d="M73.2527 41.4977V45.6815H75.4529V46.2908H72.6028V41.4977H73.2527ZM83.5362 41.4977V42.1069H81.0923V43.5354H83.367V44.1447H81.0923V45.6815H83.6581V46.2908H80.4424V41.4977H83.5362ZM90.9967 41.4977L93.048 46.2908H92.2898L91.8091 45.106H89.5276L89.0537 46.2908H88.2955L90.4077 41.4977H90.9967ZM89.7578 44.5374H91.5721L90.6785 42.3371H90.665L89.7578 44.5374ZM99.7164 41.4977C100.186 41.4977 100.554 41.615 100.82 41.8497C101.086 42.0844 101.219 42.4139 101.219 42.8381C101.219 43.1585 101.11 43.4384 100.891 43.6776C100.672 43.9168 100.391 44.059 100.048 44.1041H100.041L101.402 46.2908H100.59L99.3711 44.1785H98.6467V46.2908H97.9968V41.4977H99.7164ZM99.5268 43.6099C99.8653 43.6099 100.117 43.5478 100.282 43.4237C100.446 43.2996 100.529 43.1044 100.529 42.8381C100.529 42.3236 100.195 42.0663 99.5268 42.0663H98.6467V43.6099L99.5268 43.6099ZM107.312 41.4977L109.953 45.4378H109.966V41.4977H110.616V46.2908H109.79L107.123 42.3507H107.109V46.2908H106.459V41.4977H107.312ZM124.102 41.4977C124.571 41.4977 124.939 41.615 125.205 41.8497C125.471 42.0844 125.605 42.4139 125.605 42.8381C125.605 43.1585 125.495 43.4384 125.276 43.6776C125.057 43.9168 124.776 44.059 124.433 44.1041H124.427L125.787 46.2908H124.975L123.756 44.1785H123.032V46.2908H122.382V41.4977H124.102ZM123.912 43.6099C124.251 43.6099 124.502 43.5478 124.667 43.4237C124.832 43.2996 124.914 43.1044 124.914 42.8381C124.914 42.3236 124.58 42.0663 123.912 42.0663H123.032V43.6099L123.912 43.6099ZM131.494 41.4977V46.2908H130.845V41.4977H131.494ZM139.26 41.3758C140.058 41.3758 140.652 41.5834 141.04 41.9986L140.58 42.4928C140.223 42.1543 139.781 41.9851 139.253 41.9851C138.725 41.9851 138.291 42.1667 137.953 42.5301C137.614 42.8934 137.445 43.3481 137.445 43.8942C137.445 44.4448 137.625 44.9007 137.983 45.2617C138.342 45.6228 138.783 45.8033 139.307 45.8033C139.803 45.8033 140.196 45.7198 140.485 45.5528V44.2192H139.422V43.6099H141.135V45.9726C140.9 46.1125 140.617 46.2208 140.285 46.2975C139.954 46.3743 139.632 46.4126 139.321 46.4126C138.567 46.4126 137.951 46.1779 137.472 45.7086C136.994 45.2392 136.755 44.6344 136.755 43.8942C136.755 43.1811 136.991 42.5831 137.462 42.1002C137.934 41.6173 138.533 41.3758 139.26 41.3758ZM147.295 41.4977V43.488H149.78V41.4977H150.43V46.2908H149.78V44.0973H147.295V46.2908H146.646V41.4977H147.295ZM159.184 41.4977V42.1069H157.64V46.2908H156.99V42.1069H155.447V41.4977H159.184ZM163.774 45.4378C163.9 45.4378 164.006 45.4829 164.092 45.5732C164.177 45.6634 164.22 45.7672 164.22 45.8846C164.22 46.0155 164.175 46.1227 164.085 46.2062C163.995 46.2897 163.891 46.3314 163.774 46.3314C163.656 46.3314 163.552 46.2885 163.462 46.2028C163.372 46.117 163.327 46.011 163.327 45.8846C163.327 45.7582 163.372 45.6521 163.462 45.5664C163.552 45.4806 163.656 45.4378 163.774 45.4378Z" fill="white"/>
</svg>
