<svg width="42" height="35" viewBox="0 0 42 35" fill="none" xmlns="http://www.w3.org/2000/svg">
<path d="M41.3526 4.47141C39.8306 5.16739 38.1956 5.63575 36.4795 5.847C38.2322 4.76618 39.5761 3.05487 40.2091 1.0144C38.571 2.01498 36.7547 2.74208 34.8207 3.13511C33.2733 1.43691 31.0689 0.375732 28.6292 0.375732C23.9438 0.375732 20.1459 4.28799 20.1459 9.11077C20.1459 9.79529 20.2222 10.4634 20.3654 11.1005C13.315 10.7369 7.06466 7.25863 2.87867 1.97241C2.15025 3.26285 1.73197 4.7629 1.73197 6.36613C1.73197 9.39571 3.22856 12.0699 5.50446 13.6355C4.11443 13.5896 2.80551 13.1966 1.66199 12.5432C1.66199 12.5809 1.66199 12.6153 1.66199 12.6529C1.66199 16.8862 4.58519 20.4169 8.46741 21.2176C7.7565 21.4174 7.00582 21.5239 6.23128 21.5239C5.68576 21.5239 5.15297 21.4682 4.63608 21.3683C5.71598 24.8384 8.84912 27.3652 12.5612 27.4357C9.65864 29.7791 6.00067 31.176 2.02461 31.176C1.34073 31.176 0.664797 31.135 0 31.0532C3.75499 33.5309 8.21295 34.9769 13.0049 34.9769C28.6101 34.9769 37.1412 21.6664 37.1412 10.1228C37.1412 9.74452 37.1332 9.36787 37.1173 8.99286C38.7761 7.75974 40.2155 6.22202 41.3526 4.47141Z" fill="#ECECEC"/>
</svg>
